HIERARCHY
ROOT Hips
{
	OFFSET 0.000000 0.000000 0.000000
	CHANNELS 6 Xposition Yposition Zposition Zrotation Yrotation Xrotation 
	JOINT LHipJoint
	{
		OFFSET 0.000000 0.000000 0.000000
		CHANNELS 3 Zrotation Yrotation Xrotation
		JOINT LeftUpLeg
		{
			OFFSET 1.363060 -1.794630 0.839290
			CHANNELS 3 Zrotation Yrotation Xrotation
			JOINT LeftLeg
			{
				OFFSET 2.448110 -6.726130 0.000000
				CHANNELS 3 Zrotation Yrotation Xrotation
				JOINT LeftFoot
				{
					OFFSET 2.562200 -7.039590 0.000000
					CHANNELS 3 Zrotation Yrotation Xrotation
					JOINT LeftToeBase
					{
						OFFSET 0.157640 -0.433110 2.322550
						CHANNELS 3 Zrotation Yrotation Xrotation
						End Site
						{
							OFFSET 0.000000 0.000000 0.000000
						}
					}
				}
			}
		}
	}
	JOINT RHipJoint
	{
		OFFSET 0.000000 0.000000 0.000000
		CHANNELS 3 Zrotation Yrotation Xrotation
		JOINT RightUpLeg
		{
			OFFSET -1.305520 -1.794630 0.839290
			CHANNELS 3 Zrotation Yrotation Xrotation
			JOINT RightLeg
			{
				OFFSET -2.542530 -6.985550 0.000000
				CHANNELS 3 Zrotation Yrotation Xrotation
				JOINT RightFoot
				{
					OFFSET -2.568260 -7.056230 0.000000
					CHANNELS 3 Zrotation Yrotation Xrotation
					JOINT RightToeBase
					{
						OFFSET -0.164730 -0.452590 2.363150
						CHANNELS 3 Zrotation Yrotation Xrotation
						End Site
						{
							OFFSET 0.000000 0.000000 0.000000
						}
					}
				}
			}
		}
	}
}
MOTION
Frames: 31
Frame Time: 0.008333
4.590774 17.368049 0.423203 -170.165902 -77.804199 -171.041958 -11.385506 0.259712 -2.988956 -5.704784 22.807965 -18.051448 -2.561601 -1.144312 -5.461255 1.292233 11.500226 5.251236 2.885500 -0.000000 -41.623900 8.975413 -0.541748 2.048552 5.017155 5.813061 -18.345349 2.780581 1.293381 -2.096953 0.380375 -0.298550 6.343878 -0.925400 0.000000 -57.127900
4.567333 17.366644 0.415846 -170.808445 -77.040674 -170.513988 -11.417446 0.340926 -2.970406 -5.756505 23.299661 -17.826943 -2.584262 -1.166505 -5.575043 1.337070 11.674622 5.206356 2.886400 -0.000000 -41.499600 8.963984 -0.596664 2.250439 4.900094 6.156403 -18.361602 2.799397 1.306097 -2.153881 0.417257 0.103370 6.406054 -0.795400 0.000000 -57.234500
4.543636 17.364992 0.409438 -171.388744 -76.278468 -170.058081 -11.450990 0.428460 -2.939844 -5.809232 23.762618 -17.591650 -2.602952 -1.189258 -5.700907 1.389481 11.876682 5.168145 2.891600 0.000000 -41.380500 8.950550 -0.652016 2.457359 4.774028 6.510260 -18.371255 2.816390 1.319689 -2.205933 0.452993 0.478847 6.462202 -0.675300 0.000000 -57.348799
4.519952 17.363254 0.404029 -171.905104 -75.522809 -169.678736 -11.486873 0.520490 -2.899665 -5.857109 24.197061 -17.340857 -2.617004 -1.212062 -5.838101 1.449428 12.104805 5.138161 2.900600 0.000000 -41.256400 8.934237 -0.708042 2.666968 4.642405 6.876611 -18.368889 2.831290 1.333311 -2.251454 0.486946 0.821714 6.514897 -0.566900 -0.000000 -57.474200
4.496665 17.361493 0.399712 -172.367151 -74.776255 -169.369860 -11.523666 0.614671 -2.852350 -5.898290 24.603528 -17.096090 -2.627000 -1.231316 -5.932308 1.511323 12.356821 5.086285 2.913001 -0.000000 -41.128300 8.914941 -0.764627 2.877251 4.506039 7.252485 -18.347809 2.844331 1.346907 -2.295063 0.518998 1.133881 6.568659 -0.469100 -0.000000 -57.611700
4.474161 17.359792 0.396535 -172.784286 -74.037262 -169.127979 -11.554020 0.704168 -2.802420 -5.930514 24.981718 -16.957522 -2.636026 -1.232649 -5.757366 1.549556 12.626139 4.881316 2.927800 -0.000000 -40.996100 8.892495 -0.821052 3.086414 4.366812 7.634446 -18.301669 2.856134 1.360641 -2.339425 0.549624 1.418568 6.627417 -0.380900 -0.000001 -57.763199
4.452495 17.358236 0.394523 -173.157489 -73.312637 -168.949394 -11.586828 0.794567 -2.749769 -5.951662 25.340552 -16.804959 -2.641155 -1.231805 -5.569681 1.590328 12.910824 4.676387 2.944100 -0.000000 -40.859600 8.867462 -0.878373 3.291891 4.226996 8.016765 -18.227912 2.866766 1.373684 -2.388280 0.578846 1.680210 6.694859 -0.300200 -0.000000 -57.929800
4.432017 17.356905 0.393712 -173.494825 -72.603220 -168.829644 -11.621940 0.884923 -2.696856 -5.960568 25.685901 -16.637232 -2.642982 -1.228614 -5.369992 1.632612 13.204592 4.474257 2.960900 -0.000000 -40.720900 8.840305 -0.936262 3.491488 4.089401 8.393539 -18.125402 2.876708 1.385594 -2.442246 0.607081 1.924587 6.773651 -0.225000 -0.000000 -58.113000
4.412718 17.355760 0.394113 -173.797006 -71.911289 -168.765886 -11.659102 0.974752 -2.645801 -5.956241 26.022392 -16.453024 -2.642218 -1.223095 -5.159188 1.675334 13.500739 4.276360 2.976700 -0.000000 -40.585200 8.811999 -0.994343 3.682360 3.956995 8.755073 -17.992370 2.886811 1.396362 -2.503621 0.635193 2.161076 6.864989 -0.152100 -0.000001 -58.313701
4.394682 17.354949 0.395749 -174.068792 -71.235658 -168.752608 -11.698095 1.063590 -2.597820 -5.939067 26.355060 -16.254422 -2.639580 -1.215314 -4.940281 1.717532 13.793551 4.086369 2.991300 0.000000 -40.455700 8.783002 -1.052096 3.863021 3.833293 9.094947 -17.834189 2.897771 1.405601 -2.569111 0.663704 2.396457 6.970773 -0.079200 0.000000 -58.532400
4.377761 17.354455 0.398616 -174.310162 -70.576547 -168.784985 -11.738452 1.151118 -2.553963 -5.909983 26.687373 -16.044577 -2.635825 -1.205449 -4.716001 1.758389 14.077896 3.906255 3.004000 -0.000001 -40.338300 8.754165 -1.108721 4.031371 3.721568 9.404372 -17.655670 2.910470 1.413396 -2.637268 0.693517 2.639248 7.090677 -0.003599 0.000000 -58.769100
4.361741 17.354292 0.402733 -174.519883 -69.933701 -168.857676 -11.779716 1.237230 -2.514552 -5.870691 27.021147 -15.827666 -2.631606 -1.193777 -4.490154 1.797275 14.349800 3.738236 3.014799 0.000000 -40.237800 8.726229 -1.163361 4.185818 3.624784 9.675845 -17.464384 2.925695 1.419801 -2.704642 0.725160 2.896875 7.224419 0.077201 -0.000000 -59.023700
4.346501 17.354494 0.408136 -174.698579 -69.305947 -168.964146 -11.821201 1.321705 -2.479817 -5.823733 27.357703 -15.609509 -2.627528 -1.180562 -4.266943 1.833851 14.606875 3.584038 3.024000 0.000001 -40.160700 8.699887 -1.214797 4.325119 3.545373 9.903874 -17.269674 2.944035 1.424962 -2.767532 0.759150 3.174507 7.371273 0.164699 0.000000 -59.295500
4.331726 17.355072 0.414891 -174.843364 -68.691962 -169.098710 -11.862286 1.404467 -2.449164 -5.772254 27.696114 -15.396827 -2.624011 -1.166201 -4.050955 1.868066 14.848419 3.445047 3.032200 0.000000 -40.111100 8.675706 -1.262034 4.448614 3.485090 10.084440 -17.080927 2.966011 1.429203 -2.822527 0.795923 3.476070 7.529972 0.260300 0.000001 -59.584000
4.317149 17.356060 0.423000 -174.954102 -68.090642 -169.253437 -11.902352 1.485580 -2.421863 -5.720484 28.034973 -15.195945 -2.621422 -1.151158 -3.847268 1.900143 15.075634 3.322495 3.040500 -0.000000 -40.088600 8.654200 -1.304176 4.556372 3.444032 10.216037 -16.908051 2.991782 1.432814 -2.866989 0.835375 3.802916 7.700702 0.364700 0.000000 -59.888000
4.302632 17.357515 0.432569 -175.032280 -67.500422 -169.420821 -11.940634 1.564886 -2.397218 -5.672951 28.371819 -15.013122 -2.619966 -1.135864 -3.660559 1.930478 15.290744 3.217177 3.050100 0.000000 -40.093700 8.635792 -1.340326 4.648911 3.421251 10.299836 -16.759967 3.021245 1.436115 -2.899632 0.877179 4.154045 7.883397 0.477800 0.000000 -60.206700
4.287848 17.359489 0.443660 -175.076832 -66.920443 -169.592648 -11.976628 1.642426 -2.374271 -5.634892 28.703804 -14.854181 -2.619894 -1.120945 -3.495691 1.959509 15.496310 3.129451 3.062100 0.000000 -40.124800 8.620723 -1.370289 4.727715 3.414201 10.339998 -16.643678 3.054050 1.439511 -2.921154 0.920846 4.526195 8.079071 0.599100 -0.000000 -60.538200
4.272787 17.362017 0.456330 -175.093348 -66.349892 -169.760120 -12.009632 1.717920 -2.352854 -5.611932 29.028376 -14.723784 -2.621320 -1.106827 -3.356417 1.987779 15.695895 3.060058 3.077900 -0.000000 -40.176600 8.609251 -1.393683 4.794275 3.418881 10.342517 -16.564487 3.089471 1.443243 -2.933930 0.965818 4.913994 8.289045 0.727401 -0.000000 -60.880900
4.257367 17.365163 0.470578 -175.086144 -65.788589 -169.913628 -12.039332 1.791333 -2.332849 -5.609536 29.343108 -14.624968 -2.624464 -1.094030 -3.245923 2.015630 15.891752 3.008822 3.098300 -0.000001 -40.243000 8.601365 -1.410759 4.850751 3.430144 10.315900 -16.525282 3.126595 1.447597 -2.942007 1.011445 5.310128 8.515203 0.860900 0.000000 -61.232800
4.241628 17.368931 0.486417 -175.062236 -65.236569 -170.043686 -12.065346 1.862399 -2.314924 -5.633179 29.646795 -14.560802 -2.629647 -1.082838 -3.165677 2.043260 16.085032 2.975338 3.123899 -0.000000 -40.320600 8.596981 -1.421595 4.899360 3.441589 10.270515 -16.526907 3.164295 1.452869 -2.951084 1.056928 5.705691 8.758968 0.997000 0.000000 -61.590699
4.225699 17.373295 0.503777 -175.031117 -64.693362 -170.140974 -12.087833 1.931568 -2.299431 -5.688044 29.938796 -14.531837 -2.637181 -1.073377 -3.116193 2.070714 16.275995 2.959063 3.154701 -0.000000 -40.400700 8.595663 -1.426564 4.942608 3.446169 10.216946 -16.567255 3.201422 1.459375 -2.967117 1.101919 6.091216 9.021601 1.132999 0.000000 -61.952500
4.209829 17.378229 0.522520 -175.003525 -64.159344 -170.196819 -12.106966 1.999219 -2.287126 -5.778217 30.219983 -14.538505 -2.647571 -1.065513 -3.095921 2.097732 16.462550 2.958611 3.190000 0.000000 -40.479200 8.596917 -1.425844 4.982983 3.436438 10.166061 -16.643331 3.236813 1.467437 -2.996457 1.146231 6.457087 9.303832 1.265500 0.000000 -62.314900
4.194231 17.383577 0.542481 -174.988469 -63.633989 -170.204952 -12.123164 2.065976 -2.278537 -5.906953 30.491872 -14.580487 -2.661385 -1.058988 -3.101883 2.123790 16.640694 2.971991 3.228601 0.000000 -40.552000 8.600019 -1.419824 5.022883 3.405914 10.127818 -16.750298 3.269474 1.477393 -3.044315 1.189753 6.793951 9.604469 1.391000 -0.000000 -62.675400
4.179102 17.389227 0.563385 -174.993895 -63.118521 -170.159350 -12.136644 2.132039 -2.274851 -6.076120 30.756887 -14.657157 -2.679347 -1.053504 -3.130245 2.148076 16.804733 2.997238 3.268500 0.000000 -40.619499 8.604520 -1.408838 5.064116 3.348467 10.110697 -16.883820 3.298437 1.489433 -3.115350 1.232538 7.093982 9.921629 1.506401 0.000000 -63.030599
4.164855 17.394960 0.584983 -175.026942 -62.613672 -170.058644 -12.147489 2.197448 -2.277346 -6.285480 31.016819 -14.766397 -2.701912 -1.048555 -3.175469 2.169799 16.948616 3.030417 3.307100 0.000000 -40.679900 8.610097 -1.392885 5.107305 3.259934 10.120333 -17.038484 3.323002 1.503604 -3.211992 1.274544 7.351400 10.251571 1.608800 0.000000 -63.379400
4.151709 17.400501 0.606982 -175.090365 -62.120720 -169.901874 -12.155490 2.261833 -2.287882 -6.533568 31.273788 -14.906868 -2.729630 -1.043663 -3.231956 2.188076 17.065716 3.067685 3.341900 0.000000 -40.736300 8.616789 -1.371814 5.152152 3.137979 10.160323 -17.210620 3.342675 1.519853 -3.334783 1.315815 7.562465 10.589291 1.695900 0.000000 -63.720000
4.139720 17.405598 0.629075 -175.181294 -61.640282 -169.690491 -12.160154 2.324360 -2.308840 -6.817698 31.528893 -15.077780 -2.762879 -1.038359 -3.294472 2.202204 17.150134 3.104761 3.369900 -0.000001 -40.791900 8.624963 -1.344989 5.197113 2.982106 10.232187 -17.398504 3.357297 1.538112 -3.482753 1.355825 7.726124 10.929175 1.766600 -0.000001 -64.050700
4.129174 17.410007 0.650962 -175.297433 -61.172824 -169.426781 -12.160395 2.383819 -2.342890 -7.134455 31.781527 -15.279083 -2.801768 -1.032187 -3.358651 2.211836 17.198062 3.136814 3.388701 -0.000000 -40.849500 8.635476 -1.311076 5.239329 2.794061 10.335295 -17.602333 3.366936 1.558174 -3.652610 1.394536 7.844069 11.264906 1.820399 -0.000000 -64.369600
4.119872 17.413464 0.672352 -175.428911 -60.719015 -169.113995 -12.155120 2.438808 -2.392299 -7.479681 32.029429 -15.511997 -2.846262 -1.025109 -3.421371 2.216876 17.207585 3.159548 3.396700 -0.000000 -40.911000 8.649303 -1.269145 5.275854 2.577137 10.468136 -17.825088 3.371931 1.579944 -3.839826 1.431139 7.918842 11.589810 1.857800 0.000000 -64.675999
4.111674 17.415849 0.692925 -175.566285 -60.281267 -168.754642 -12.142941 2.487465 -2.458679 -7.850501 32.268729 -15.779145 -2.896252 -1.017751 -3.481488 2.217353 17.178789 3.170264 3.393100 -0.000000 -40.977600 8.667549 -1.219076 5.304297 2.335615 10.627439 -18.072739 3.372618 1.603075 -4.039503 1.464976 7.955275 11.898663 1.880100 0.000000 -64.965800
4.104190 17.417068 0.712397 -175.700153 -59.865643 -168.352702 -12.122967 2.527913 -2.540988 -8.243618 32.494480 -16.083298 -2.951422 -1.011478 -3.539085 2.213348 17.113402 3.167376 3.378100 0.000000 -41.048201 8.690462 -1.162640 5.325029 2.074731 10.810051 -18.352168 3.369287 1.627076 -4.245957 1.495366 7.957716 12.185737 1.888799 0.000000 -65.235701
